<svg width="106" height="34" viewBox="0 0 106 34" fill="none" xmlns="http://www.w3.org/2000/svg">
    <path d="M0 22V0.759999H2.16V22H0ZM3.24 22V0.759999H6.48V22H3.24ZM7.56 22V0.759999H8.64V22H7.56ZM5.904 33.628C4.824 33.628 3.948 33.268 3.276 32.548L3.78 31.72L3.816 31.612L3.924 31.648C3.924 31.672 3.936 31.72 3.96 31.792C3.96 31.84 3.984 31.9 4.032 31.972C4.056 32.02 4.104 32.068 4.176 32.116C4.68 32.548 5.304 32.764 6.048 32.764C6.528 32.764 6.936 32.632 7.272 32.368C7.608 32.08 7.776 31.744 7.776 31.36C7.776 31.096 7.716 30.868 7.596 30.676C7.5 30.508 7.32 30.34 7.056 30.172C6.792 30.004 6.384 29.8 5.832 29.56C5.016 29.248 4.428 28.888 4.068 28.48C3.732 28.072 3.564 27.616 3.564 27.112C3.564 26.488 3.792 25.984 4.248 25.6C4.704 25.216 5.316 25.024 6.084 25.024C6.54 25.024 6.972 25.12 7.38 25.312C7.764 25.504 8.112 25.756 8.424 26.068L7.812 26.896L7.74 26.824C7.74 26.8 7.728 26.764 7.704 26.716C7.704 26.644 7.68 26.584 7.632 26.536C7.608 26.464 7.56 26.404 7.488 26.356C7.296 26.164 7.068 26.02 6.804 25.924C6.564 25.852 6.276 25.816 5.94 25.816C5.508 25.816 5.172 25.936 4.932 26.176C4.668 26.416 4.536 26.704 4.536 27.04C4.536 27.304 4.584 27.532 4.68 27.724C4.8 27.916 5.004 28.096 5.292 28.264C5.58 28.456 6.012 28.66 6.588 28.876C7.38 29.212 7.932 29.548 8.244 29.884C8.532 30.244 8.676 30.688 8.676 31.216C8.676 31.624 8.58 32.008 8.388 32.368C8.172 32.728 7.86 33.028 7.452 33.268C7.02 33.508 6.504 33.628 5.904 33.628ZM11.8828 22V0.759999H12.9628V22H11.8828ZM15.1228 22V0.759999H16.2028V22H15.1228ZM17.2828 22V0.759999H19.4428V22H17.2828ZM17.7508 27.22C18.6148 27.22 19.2748 27.448 19.7308 27.904C20.1868 28.36 20.4148 29.14 20.4148 30.244V33.484H19.3708V32.548C19.0108 33.268 18.3148 33.628 17.2828 33.628C16.6108 33.628 16.0828 33.472 15.6988 33.16C15.3148 32.848 15.1228 32.44 15.1228 31.936C15.1228 31.504 15.2668 31.132 15.5548 30.82C15.8188 30.508 16.1908 30.256 16.6708 30.064C17.1268 29.896 17.6428 29.812 18.2188 29.812C18.7228 29.812 19.1788 29.836 19.5868 29.884C19.5388 29.212 19.3588 28.732 19.0468 28.444C18.7348 28.156 18.2788 28.012 17.6788 28.012C17.3668 28.012 17.0788 28.072 16.8148 28.192C16.5268 28.312 16.2628 28.48 16.0228 28.696L15.5548 28.084C16.1308 27.508 16.8628 27.22 17.7508 27.22ZM17.3908 32.908C18.0628 32.908 18.5908 32.704 18.9748 32.296C19.3588 31.912 19.5628 31.36 19.5868 30.64C19.1788 30.568 18.7468 30.532 18.2908 30.532C17.6188 30.532 17.0788 30.652 16.6708 30.892C16.2868 31.108 16.0948 31.444 16.0948 31.9C16.0948 32.572 16.5268 32.908 17.3908 32.908ZM23.7656 22V0.759999H28.0856V22H23.7656ZM29.1656 22V0.759999H30.2456V22H29.1656ZM32.4056 22V0.759999H33.4856V22H32.4056ZM32.4416 27.364C32.2976 28.084 31.9976 28.972 31.5416 30.028L30.0656 33.484H29.3096L26.8976 27.364H27.8696L29.7416 32.152L30.7496 29.884C31.1576 28.972 31.4216 28.132 31.5416 27.364H32.4416ZM35.6484 22V0.759999H36.7284V22H35.6484ZM37.8084 22V0.759999H39.9684V22H37.8084ZM42.1284 22V0.759999H43.2084V22H42.1284ZM41.8764 33.628C40.9644 33.628 40.2444 33.352 39.7164 32.8C39.1644 32.248 38.8884 31.468 38.8884 30.46C38.8884 29.788 39.0204 29.2 39.2844 28.696C39.5244 28.216 39.8604 27.856 40.2924 27.616C40.7004 27.352 41.1684 27.22 41.6964 27.22C42.4404 27.22 43.0404 27.46 43.4964 27.94C43.9524 28.444 44.1804 29.176 44.1804 30.136C44.1804 30.232 44.1804 30.376 44.1804 30.568H39.8244C39.8484 31.312 40.0524 31.876 40.4364 32.26C40.8204 32.644 41.3124 32.836 41.9124 32.836C42.5604 32.836 43.0884 32.608 43.4964 32.152L44.0364 32.692C43.5084 33.316 42.7884 33.628 41.8764 33.628ZM43.2084 29.812C43.2084 29.236 43.0644 28.78 42.7764 28.444C42.4884 28.108 42.1044 27.94 41.6244 27.94C41.1924 27.94 40.8084 28.096 40.4724 28.408C40.1364 28.72 39.9324 29.188 39.8604 29.812H43.2084ZM47.5312 22V0.759999H50.7713V22H47.5312ZM51.8513 22V0.759999H52.9313V22H51.8513ZM54.0113 22V0.759999H56.1713V22H54.0113ZM50.4473 25.132H51.4193L53.5793 31.54L55.5953 25.132H56.5312L53.7233 33.52H53.2913L50.4473 25.132ZM59.4141 22V0.759999H60.4941V22H59.4141ZM64.8141 22V0.759999H66.9741V22H64.8141ZM68.0541 22V0.759999H69.1341V22H68.0541ZM63.3381 32.692H64.9221V28.156H63.4101V27.364H65.8581V32.692H67.2981V33.484H63.3381V32.692ZM65.3541 26.068C65.1621 26.068 64.9941 26.008 64.8501 25.888C64.7301 25.744 64.6701 25.576 64.6701 25.384C64.6701 25.192 64.7301 25.036 64.8501 24.916C64.9701 24.772 65.1381 24.7 65.3541 24.7C65.5221 24.7 65.6781 24.772 65.8221 24.916C65.9661 25.06 66.0381 25.216 66.0381 25.384C66.0381 25.576 65.9661 25.744 65.8221 25.888C65.6781 26.008 65.5221 26.068 65.3541 26.068ZM71.2969 22V0.759999H72.3769V22H71.2969ZM76.6969 22V0.759999H77.7769V22H76.6969ZM79.9369 22V0.759999H82.0969V22H79.9369ZM77.0209 33.628C76.5889 33.628 76.1809 33.496 75.7969 33.232C75.4129 32.992 75.1009 32.632 74.8609 32.152C74.6209 31.648 74.5009 31.048 74.5009 30.352C74.5009 29.656 74.6209 29.068 74.8609 28.588C75.1249 28.132 75.4489 27.784 75.8329 27.544C76.2169 27.328 76.6249 27.22 77.0569 27.22C77.4889 27.22 77.8489 27.304 78.1369 27.472C78.4489 27.664 78.6889 27.928 78.8569 28.264V24.592H79.8649V24.664C79.8169 24.736 79.7809 24.796 79.7569 24.844C79.7569 24.916 79.7569 25.024 79.7569 25.168V32.548C79.7569 32.764 79.7689 32.932 79.7929 33.052C79.7929 33.196 79.8289 33.34 79.9009 33.484H78.9649C78.8929 33.34 78.8449 33.196 78.8209 33.052C78.8209 32.932 78.8209 32.764 78.8209 32.548C78.6289 32.884 78.3769 33.148 78.0649 33.34C77.7529 33.532 77.4049 33.628 77.0209 33.628ZM77.1649 32.764C77.7169 32.764 78.1249 32.548 78.3889 32.116C78.6529 31.684 78.7849 31.108 78.7849 30.388C78.7849 29.668 78.6409 29.092 78.3529 28.66C78.0649 28.228 77.6449 28.012 77.0929 28.012C76.5649 28.012 76.1569 28.204 75.8689 28.588C75.5809 28.996 75.4369 29.536 75.4369 30.208C75.4369 31 75.5809 31.624 75.8689 32.08C76.1809 32.536 76.6129 32.764 77.1649 32.764ZM83.1797 22V0.759999H84.2597V22H83.1797ZM85.3397 22V0.759999H87.4997V22H85.3397ZM89.6597 22V0.759999H90.7397V22H89.6597ZM89.4077 33.628C88.4957 33.628 87.7757 33.352 87.2477 32.8C86.6957 32.248 86.4197 31.468 86.4197 30.46C86.4197 29.788 86.5517 29.2 86.8157 28.696C87.0557 28.216 87.3917 27.856 87.8237 27.616C88.2317 27.352 88.6997 27.22 89.2277 27.22C89.9717 27.22 90.5717 27.46 91.0277 27.94C91.4837 28.444 91.7117 29.176 91.7117 30.136C91.7117 30.232 91.7117 30.376 91.7117 30.568H87.3557C87.3797 31.312 87.5837 31.876 87.9677 32.26C88.3517 32.644 88.8437 32.836 89.4437 32.836C90.0917 32.836 90.6197 32.608 91.0277 32.152L91.5677 32.692C91.0397 33.316 90.3197 33.628 89.4077 33.628ZM90.7397 29.812C90.7397 29.236 90.5957 28.78 90.3077 28.444C90.0197 28.108 89.6357 27.94 89.1557 27.94C88.7237 27.94 88.3397 28.096 88.0037 28.408C87.6677 28.72 87.4637 29.188 87.3917 29.812H90.7397ZM95.0625 22V0.759999H96.1425V22H95.0625ZM99.3825 22V0.759999H103.703V22H99.3825ZM104.783 22V0.759999H105.863V22H104.783ZM101.003 33.592C100.451 33.592 99.9585 33.46 99.5265 33.196C99.1185 32.932 98.7945 32.56 98.5545 32.08C98.2905 31.6 98.1585 31.048 98.1585 30.424C98.1585 29.8 98.2905 29.248 98.5545 28.768C98.7945 28.288 99.1185 27.916 99.5265 27.652C99.9585 27.364 100.451 27.22 101.003 27.22C101.555 27.22 102.035 27.364 102.443 27.652C102.875 27.916 103.211 28.288 103.451 28.768C103.691 29.248 103.811 29.8 103.811 30.424C103.811 31.048 103.691 31.6 103.451 32.08C103.211 32.56 102.875 32.932 102.443 33.196C102.035 33.46 101.555 33.592 101.003 33.592ZM101.003 32.8C101.339 32.8 101.651 32.692 101.939 32.476C102.203 32.284 102.419 32.008 102.587 31.648C102.731 31.264 102.803 30.844 102.803 30.388C102.803 29.692 102.635 29.128 102.299 28.696C101.963 28.264 101.531 28.048 101.003 28.048C100.475 28.048 100.043 28.264 99.7065 28.696C99.3705 29.128 99.2025 29.692 99.2025 30.388C99.2025 30.844 99.2745 31.264 99.4185 31.648C99.5865 32.008 99.8025 32.284 100.067 32.476C100.331 32.692 100.643 32.8 101.003 32.8Z" fill="#333333"/>
</svg>